subject_02
version=1
nRows=271
nColumns=3
inDegrees=yes
endheader
time	r_shoulder_elev	r_elbow_flex
156.0600	20.436163	52.532326
156.0700	20.436163	53.243715
156.0800	20.436163	53.890847
156.0900	20.436163	54.426477
156.1000	20.436163	54.854186
156.1100	20.436163	55.223855
156.1200	20.436163	55.612669
156.1300	20.436163	56.097651
156.1400	20.436163	56.728072
156.1500	20.436163	57.505976
156.1600	20.436163	58.380699
156.1700	20.436163	59.259212
156.1800	20.436163	60.029632
156.1900	20.436163	60.591562
156.2000	20.436163	60.884944
156.2100	20.436163	60.909498
156.2200	20.436163	60.729318
156.2300	20.436163	60.461131
156.2400	20.436163	60.249047
156.2500	20.436163	60.232078
156.2600	20.436163	60.512524
156.2700	20.436163	61.132945
156.2800	20.436163	62.067102
156.2900	20.436163	63.226656
156.3000	20.436163	64.481449
156.3100	20.436163	65.688018
156.3200	20.436163	66.719316
156.3300	20.436163	67.488771
156.3400	20.436163	67.963736
156.3500	20.436163	68.166306
156.3600	20.436163	68.162730
156.3700	20.436163	68.045213
156.3800	20.436163	67.911251
156.3900	20.436163	67.845540
156.4000	20.436163	67.908062
156.4100	20.436163	68.129788
156.4200	20.436163	68.515208
156.4300	20.436163	69.049217
156.4400	20.436163	69.705244
156.4500	20.436163	70.451873
156.4600	20.436163	71.256447
156.4700	20.436163	72.085674
156.4800	20.436163	72.904570
156.4900	20.436163	73.675720
156.5000	20.436163	74.360666
156.5100	20.436163	74.924222
156.5200	20.436163	75.341224
156.5300	20.436163	75.603922
156.5400	20.436163	75.727537
156.5500	20.436163	75.751631
156.5600	20.436163	75.735899
156.5700	20.436163	75.750517
156.5800	20.436163	75.862862
156.5900	20.436163	76.123612
156.6000	20.436163	76.555711
156.6100	20.436163	77.149131
156.6200	20.436163	77.862953
156.6300	20.436163	78.634441
156.6400	20.436163	79.392933
156.6500	20.436163	80.075134
156.6600	20.436163	80.638055
156.6700	20.436163	81.066528
156.6800	20.436163	81.373728
156.6900	20.436163	81.595011
156.7000	20.436163	81.777112
156.7100	20.436163	81.965848
156.7200	20.436163	82.195624
156.7300	20.436163	82.483315
156.7400	20.436163	82.827649
156.7500	20.436163	83.213559
156.7600	20.436163	83.619589
156.7700	20.436163	84.025760
156.7800	20.436163	84.419366
156.7900	20.436163	84.797157
156.8000	20.436163	85.163634
156.8100	20.436163	85.526566
156.8200	20.436163	85.891718
156.8300	20.436163	86.258957
156.8400	20.436163	86.621329
156.8500	20.436163	86.967533
156.8600	20.436163	87.286940
156.8700	20.436163	87.575250
156.8800	20.436163	87.838513
156.8900	20.436163	88.093662
156.9000	20.436163	88.364815
156.9100	20.436163	88.676056
156.9200	20.436163	89.042770
156.9300	20.436163	89.464320
156.9400	20.436163	89.920787
156.9500	20.436163	90.375435
156.9600	20.436163	90.782921
156.9700	20.436163	91.101438
156.9800	20.436163	91.305561
156.9900	20.436163	91.396015
157.0000	20.436163	91.403113
157.0100	20.436163	91.382218
157.0200	20.436163	91.401734
157.0300	20.436163	91.526352
157.0400	20.436163	91.799816
157.0500	20.436163	92.231928
157.0600	20.436163	92.793618
157.0700	20.436163	93.421905
157.0800	20.436163	94.033959
157.0900	20.436163	94.546939
157.1000	20.436163	94.898612
157.1100	20.436163	95.063332
157.1200	20.436163	95.059057
157.1300	20.436163	94.943366
157.1400	20.436163	94.799330
157.1500	20.436163	94.714786
157.1600	20.436163	94.760395
157.1700	20.436163	94.972177
157.1800	20.436163	95.343067
157.1900	20.436163	95.825642
157.2000	20.436163	96.345167
157.2100	20.436163	96.819401
157.2200	20.436163	97.179852
157.2300	20.436163	97.388877
157.2400	20.436163	97.448243
157.2500	20.436163	97.397185
157.2600	20.436163	97.300813
157.2700	20.436163	97.232323
157.2800	20.436163	97.253965
157.2900	20.436163	97.401857
157.3000	20.436163	97.678461
157.3100	20.436163	98.054236
157.3200	20.436163	98.477412
157.3300	20.436163	98.888638
157.3400	20.436163	99.236154
157.3500	20.436163	99.487295
157.3600	20.436163	99.633541
157.3700	20.436163	99.688447
157.3800	20.436163	99.679956
157.3900	20.436163	99.640198
157.4000	20.436163	99.596360
157.4100	20.436163	99.565511
157.4200	20.436163	99.554679
157.4300	20.436163	99.565432
157.4400	20.436163	99.600549
157.4500	20.436163	99.669550
157.4600	20.436163	99.790197
157.4700	20.436163	99.984549
157.4800	20.436163	100.270241
157.4900	20.436163	100.649665
157.5000	20.436163	101.101031
157.5100	20.436163	101.575258
157.5200	20.436163	102.001294
157.5300	20.436163	102.299995
157.5400	20.436163	102.403892
157.5500	20.436163	102.277838
157.5600	20.436163	101.934495
157.5700	20.436163	101.439273
157.5800	20.436163	100.901768
157.5900	20.436163	100.454230
157.6000	20.436163	100.221389
157.6100	20.436163	100.288828
157.6200	20.436163	100.678230
157.6300	20.436163	101.336711
157.6400	20.436163	102.144255
157.6500	20.436163	102.938721
157.6600	20.436163	103.553162
157.6700	20.436163	103.856584
157.6800	20.436163	103.787825
157.6900	20.436163	103.373446
157.7000	20.436163	102.724273
157.7100	20.436163	102.010512
157.7200	20.436163	101.420980
157.7300	20.436163	101.116307
157.7400	20.436163	101.187905
157.7500	20.436163	101.633390
157.7600	20.436163	102.355199
157.7700	20.436163	103.183346
157.7800	20.436163	103.917056
157.7900	20.436163	104.375015
157.8000	20.436163	104.441607
157.8100	20.436163	104.097261
157.8200	20.436163	103.425004
157.8300	20.436163	102.591244
157.8400	20.436163	101.805422
157.8500	20.436163	101.268574
157.8600	20.436163	101.123703
157.8700	20.436163	101.420436
157.8800	20.436163	102.102799
157.8900	20.436163	103.023033
157.9000	20.436163	103.977796
157.9100	20.436163	104.757455
157.9200	20.436163	105.196015
157.9300	20.436163	105.209295
157.9400	20.436163	104.812168
157.9500	20.436163	104.111228
157.9600	20.436163	103.275520
157.9700	20.436163	102.493486
157.9800	20.436163	101.927452
157.9900	20.436163	101.677182
158.0000	20.436163	101.761214
158.0100	20.436163	102.119702
158.0200	20.436163	102.636742
158.0300	20.436163	103.175153
158.0400	20.436163	103.613775
158.0500	20.436163	103.877182
158.0600	20.436163	103.950310
158.0700	20.436163	103.874985
158.0800	20.436163	103.730461
158.0900	20.436163	103.604469
158.1000	20.436163	103.563620
158.1100	20.436163	103.631887
158.1200	20.436163	103.783268
158.1300	20.436163	103.950504
158.1400	20.436163	104.047053
158.1500	20.436163	103.995719
158.1600	20.436163	103.755507
158.1700	20.436163	103.338752
158.1800	20.436163	102.813371
158.1900	20.436163	102.289192
158.2000	20.436163	101.891789
158.2100	20.436163	101.730631
158.2200	20.436163	101.869989
158.2300	20.436163	102.310279
158.2400	20.436163	102.984798
158.2500	20.436163	103.772749
158.2600	20.436163	104.525327
158.2700	20.436163	105.098425
158.2800	20.436163	105.383870
158.2900	20.436163	105.331841
158.3000	20.436163	104.959541
158.3100	20.436163	104.344777
158.3200	20.436163	103.606800
158.3300	20.436163	102.879669
158.3400	20.436163	102.284787
158.3500	20.436163	101.908849
158.3600	20.436163	101.791553
158.3700	20.436163	101.924572
158.3800	20.436163	102.260423
158.3900	20.436163	102.727642
158.4000	20.436163	103.247675
158.4100	20.436163	103.749288
158.4200	20.436163	104.177700
158.4300	20.436163	104.497667
158.4400	20.436163	104.691623
158.4500	20.436163	104.755190
158.4600	20.436163	104.692637
158.4700	20.436163	104.514420
158.4800	20.436163	104.237245
158.4900	20.436163	103.885914
158.5000	20.436163	103.495214
158.5100	20.436163	103.109818
158.5200	20.436163	102.780743
158.5300	20.436163	102.558147
158.5400	20.436163	102.481684
158.5500	20.436163	102.570797
158.5600	20.436163	102.817837
158.5700	20.436163	103.186438
158.5800	20.436163	103.616345
158.5900	20.436163	104.034185
158.6000	20.436163	104.367950
158.6100	20.436163	104.561809
158.6200	20.436163	104.587625
158.6300	20.436163	104.450271
158.6400	20.436163	104.185417
158.6500	20.436163	103.850394
158.6600	20.436163	103.510524
158.6700	20.436163	103.224422
158.6800	20.436163	103.031930
158.6900	20.436163	102.947506
158.7000	20.436163	102.960300
158.7100	20.436163	103.040339
158.7200	20.436163	103.148611
158.7300	20.436163	103.247994
158.7400	20.436163	103.311986
158.7500	20.436163	103.329113
158.7600	20.436163	103.302327
